<?xml version="1.0" standalone="no"?>
<!DOCTYPE svg PUBLIC "-//W3C//DTD SVG 20010904//EN"
 "http://www.w3.org/TR/2001/REC-SVG-20010904/DTD/svg10.dtd">
<svg version="1.0" xmlns="http://www.w3.org/2000/svg"
 width="328.000000pt" height="328.000000pt" viewBox="0 0 328.000000 328.000000"
 preserveAspectRatio="xMidYMid meet">
<metadata>
Created by potrace 1.11, written by Peter Selinger 2001-2013
</metadata>
<g transform="translate(0.000000,328.000000) scale(0.100000,-0.100000)"
fill="#000000" stroke="none">
<path d="M0 2873 c0 -223 2 -404 4 -402 2 2 94 185 205 407 l201 402 -205 0
-205 0 0 -407z"/>
<path d="M420 3276 c0 -3 90 -184 200 -403 l200 -398 0 403 0 402 -200 0
c-110 0 -200 -2 -200 -4z"/>
<path d="M2471 3276 c2 -2 185 -94 407 -205 l402 -201 0 205 0 205 -407 0
c-223 0 -404 -2 -402 -4z"/>
<path d="M2670 2863 l0 -198 100 100 100 100 -97 97 c-54 54 -99 98 -100 98
-2 0 -3 -89 -3 -197z"/>
<path d="M1230 2665 l0 -205 -205 0 -205 0 0 -205 0 -205 -205 0 -205 0 0
-415 0 -415 205 0 205 0 0 -200 0 -200 202 0 203 0 -203 203 -202 202 205 205
205 205 -205 205 -205 205 208 208 207 207 205 -205 205 -205 205 205 205 205
203 -202 202 -203 0 203 0 202 -200 0 -200 0 0 205 0 205 -415 0 -415 0 0
-205z m419 -203 c-216 -1 -394 0 -396 2 -2 2 85 92 193 201 l197 197 199 -199
198 -198 -391 -3z m-829 -829 l0 -398 -200 200 c-109 109 -198 201 -197 202 9
14 384 391 390 392 4 1 7 -178 7 -396z"/>
<path d="M321 2768 l-94 -93 97 -3 c53 -1 137 -1 187 0 l89 3 -93 93 -93 93
-93 -93z"/>
<path d="M3100 2774 c-91 -47 -266 -137 -390 -199 l-225 -114 398 0 397 -1 0
200 c0 110 -3 200 -7 199 -5 0 -82 -38 -173 -85z"/>
<path d="M2663 1843 l207 -208 -208 -208 -207 -207 210 2 210 3 3 413 2 412
-212 0 -213 0 208 -207z"/>
<path d="M1441 1838 l-202 -202 203 -203 203 -203 202 202 203 203 -202 202
c-112 112 -203 203 -204 203 -1 0 -92 -91 -203 -202z"/>
<path d="M2255 1834 c-104 -107 -191 -195 -192 -197 -1 -2 88 -93 197 -202
l200 -200 0 398 c0 218 -3 396 -7 396 -5 -1 -93 -89 -198 -195z"/>
<path d="M1447 1024 c-109 -108 -196 -199 -194 -201 2 -2 180 -2 396 -1 l391
3 -198 198 -198 198 -197 -197z"/>
<path d="M2258 1017 c-104 -104 -188 -191 -188 -193 0 -2 88 -4 195 -4 l195 0
0 195 c0 107 -3 194 -7 194 -5 -1 -92 -87 -195 -192z"/>
<path d="M0 615 l0 -205 403 201 c221 111 404 203 406 205 2 2 -179 4 -402 4
l-407 0 0 -205z"/>
<path d="M1230 612 l0 -212 413 2 412 3 3 210 2 210 -207 -207 -208 -208 -208
207 -207 208 0 -213z"/>
<path d="M2460 407 l0 -407 205 0 205 0 -201 403 c-111 221 -203 404 -205 406
-2 2 -4 -179 -4 -402z"/>
<path d="M3077 395 l-197 -395 200 0 200 0 0 395 c0 217 -1 395 -3 395 -1 0
-91 -178 -200 -395z"/>
<path d="M2775 510 l100 -100 97 97 c54 54 98 99 98 100 0 2 -89 3 -197 3
l-198 0 100 -100z"/>
<path d="M512 499 l-93 -93 93 -93 93 -93 3 95 c1 53 1 137 0 187 l-3 91 -93
-94z"/>
<path d="M0 200 l0 -200 403 1 402 0 -395 199 c-217 109 -398 199 -402 199 -5
1 -8 -89 -8 -199z"/>
</g>
</svg>
